<svg width="512" height="106" viewBox="0 0 512 106" fill="none" xmlns="http://www.w3.org/2000/svg">
<g clip-path="url(#clip0_630_2663)">
<path d="M305.888 30.4683C305.888 41.4545 311.197 50.142 320.408 54.3958C327.32 57.5861 340.605 59.533 353.718 61.1282C370.905 63.2469 382.251 64.8421 382.251 74.2331C382.251 83.8041 371.977 87.1744 356.729 87.1744C335.82 87.1744 315.622 81.8654 306.591 74.0695V93.7268C317.578 100.811 337.775 105.417 356.729 105.417C384.902 105.417 403.16 92.3116 403.16 72.4743C403.16 59.1813 391.994 48.5469 374.275 45.7165C363.289 43.9413 348.933 42.7061 337.947 40.931C330.691 39.8593 325.725 35.9655 325.725 31.1882C325.725 23.0324 336.711 17.7234 353.187 17.7234C368.958 17.7234 387.037 21.9689 398.555 28.1696V9.03583C388.452 4.4303 370.382 0.708252 353.187 0.708252C323.778 0.708252 305.888 12.5779 305.888 30.4683ZM508.457 31.7199V9.56755C501.193 4.07037 486.837 0.708252 472.489 0.708252C437.755 0.708252 414.727 21.4372 414.727 52.8006C414.727 84.3358 437.755 105.253 472.489 105.253C485.782 105.253 501.553 100.991 512 94.6103V74.773C503.852 81.8654 487.9 86.6508 472.489 86.6508C450.696 86.6508 436.16 73.1778 436.16 52.8006C436.16 32.4234 450.696 18.7786 472.489 18.7786C484.366 18.7786 498.706 23.924 508.457 31.7199ZM185.351 101.883H207.495V53.1524C212.984 32.7833 227.52 19.3185 244.004 19.3185C257.108 19.3185 265.796 29.0531 265.796 39.3358V101.883H287.932V39.3358C287.932 14.3531 273.052 0.708252 250.908 0.708252C229.827 0.708252 212.46 12.4061 207.495 29.9448V4.25034H185.351V101.883Z" fill="#164987"/>
<path fill-rule="evenodd" clip-rule="evenodd" d="M24.8365 53.0624C24.8365 81.9799 48.2732 105.417 77.1907 105.417C106.108 105.417 129.545 81.9799 129.545 53.0624C129.545 24.1531 106.108 0.708252 77.1907 0.708252C48.2732 0.708252 24.8365 24.1531 24.8365 53.0624ZM34.5957 53.0624C34.5957 29.5358 53.664 10.4674 77.1907 10.4674C100.717 10.4674 119.786 29.5358 119.786 53.0624C119.786 76.589 100.717 95.6656 77.1907 95.6656C53.664 95.6656 34.5957 76.589 34.5957 53.0624Z" fill="url(#paint0_linear_630_2663)"/>
<path fill-rule="evenodd" clip-rule="evenodd" d="M146.282 7.3834L126.543 18.7786L104.914 31.2618L37.2788 70.3147L25.0246 77.3907L1.8743 90.7492C0.0828058 91.7881 -0.530719 94.0868 0.500003 95.8783L0.647249 96.1401C1.34258 97.3507 2.54509 98.0461 3.94392 98.0297C46.7516 97.6043 73.3459 84.7367 110.861 51.4591L132.531 31.2782C138.306 25.6992 144.376 19.7112 150.814 13.2978C152.155 11.9562 152.294 9.86205 151.141 8.35686C150.405 7.39158 149.3 6.87622 148.163 6.86804C147.525 6.86804 146.871 7.03983 146.282 7.3834Z" fill="url(#paint1_linear_630_2663)"/>
</g>
<defs>
<linearGradient id="paint0_linear_630_2663" x1="24.8365" y1="105.417" x2="129.545" y2="105.417" gradientUnits="userSpaceOnUse">
<stop stop-color="#43C4E1"/>
<stop offset="1" stop-color="#164987"/>
</linearGradient>
<linearGradient id="paint1_linear_630_2663" x1="0.524544" y1="98.0133" x2="151.55" y2="98.0133" gradientUnits="userSpaceOnUse">
<stop stop-color="#F4AB43"/>
<stop offset="1" stop-color="#E12A2B"/>
</linearGradient>
<clipPath id="clip0_630_2663">
<rect width="512" height="104.708" fill="white" transform="translate(0 0.708252)"/>
</clipPath>
</defs>
</svg>
